<?xml version="1.0" encoding="UTF-8"?>
<svg id="Layer_1" data-name="Layer 1" xmlns="http://www.w3.org/2000/svg" viewBox="0 0 3000 3000">
  <defs>
    <style>
      .cls-1 {
        fill: none;
        stroke: #000;
        stroke-miterlimit: 10;
        stroke-width: 147px;
      }
    </style>
  </defs>
  <g>
    <path d="m980.52,2376.82h12.32l40.27,75.64,40.27-75.64h12.32v108.49h-12.32v-81.96l-40.27,75.64-40.27-75.64v81.96h-12.32v-108.49Z"/>
    <path d="m1161.81,2440.3v-63.48h12.32v63.48c0,20.84,13.74,35.69,33,35.69s33-14.84,33-35.69v-63.48h12.32v63.48c0,27.48-18.79,46.9-45.32,46.9s-45.32-19.42-45.32-46.9Z"/>
    <path d="m1338.67,2388.5v35.69h58.9v11.69h-58.9v49.43h-12.47v-108.49h77.85v11.69h-65.38Z"/>
    <path d="m1547.44,2460.67h-60.48l-10.9,24.63h-13.42l47.85-108.49h13.42l47.85,108.49h-13.42l-10.9-24.63Zm-5.05-11.69l-25.11-57.01-25.27,57.01h50.37Z"/>
    <path d="m1631.77,2469.83l7.74-9.63c9.16,9.16,20.37,15.63,35.53,15.63,16.74,0,25.27-9.16,25.27-18.95,0-11.53-10.26-16.11-29.21-20.53-21.79-5.05-35.53-11.84-35.53-30.63,0-17.37,15.48-30.95,36.32-30.95,16.11,0,28.11,6.32,38.06,15.48l-7.58,9.63c-9-8.69-19.74-13.9-31.11-13.9-13.42,0-23.21,8.84-23.21,18.79,0,11.21,10.74,15.16,29.21,19.58,20.69,4.89,35.53,12.32,35.53,31.42,0,17.21-12.95,31.27-38.21,31.27-17.84,0-31.9-6.47-42.79-17.21Z"/>
    <path d="m1858.85,2460.67h-60.48l-10.9,24.63h-13.42l47.85-108.49h13.42l47.85,108.49h-13.42l-10.9-24.63Zm-5.05-11.69l-25.11-57.01-25.27,57.01h50.37Z"/>
  </g>
  <g>
    <path d="m654.2,1929.65h-139.64v-102.22h392.86v102.22h-138.97v356.78h-114.25v-356.78Z"/>
    <path d="m1236.14,2219.61h-181.73l-26.72,66.81h-128.28l181.73-459h128.28l181.73,459h-128.28l-26.72-66.81Zm-35.41-89.53l-55.45-140.97-55.46,140.97h110.91Z"/>
    <path d="m1709.83,2286.42l-100.89-143.65h-56.12v143.65h-114.25v-459h213.13c100.89,0,174.38,64.81,174.38,157.68,0,66.81-38.08,119.59-97.54,143.65l110.91,157.68h-129.62Zm-157.01-247.87h88.19c39.42,0,67.48-21.38,67.48-53.45s-28.06-53.45-67.48-53.45h-88.19v106.9Z"/>
    <path d="m2196.88,2219.61h-181.73l-26.73,66.81h-128.28l181.73-459h128.28l181.73,459h-128.28l-26.72-66.81Zm-35.41-89.53l-55.45-140.97-55.45,140.97h110.91Z"/>
  </g>
  <path d="m1468.45,520.88v-177.63h127.8v499.74h-127.8v-176.78h-446.04v-145.33h446.04Z"/>
  <polyline class="cls-1" points="1898.38 593.92 2246.59 593.92 2246.59 1593.1 607.3 1593.1 607.3 593.92 1537.15 593.92"/>
</svg>