<?xml version="1.0" encoding="UTF-8"?>
<svg id="Layer_1" data-name="Layer 1" xmlns="http://www.w3.org/2000/svg" viewBox="0 0 3000 3000">
  <defs>
    <style>
      .cls-1 {
        fill: none;
        stroke: #000;
        stroke-miterlimit: 10;
        stroke-width: 186px;
      }
    </style>
  </defs>
  <g>
    <path d="m430.14,1486.6h-193.52v-141.67h544.44v141.67h-192.59v494.44h-158.33v-494.44Z"/>
    <path d="m1236.62,1888.45h-251.85l-37.04,92.59h-177.78l251.85-636.11h177.78l251.85,636.11h-177.78l-37.04-92.59Zm-49.07-124.07l-76.85-195.37-76.85,195.37h153.7Z"/>
    <path d="m1893.09,1981.04l-139.81-199.07h-77.78v199.07h-158.33v-636.11h295.37c139.81,0,241.67,89.81,241.67,218.52,0,92.59-52.78,165.74-135.18,199.07l153.7,218.52h-179.63Zm-217.59-343.52h122.22c54.63,0,93.52-29.63,93.52-74.07s-38.89-74.07-93.52-74.07h-122.22v148.15Z"/>
    <path d="m2568.07,1888.45h-251.85l-37.04,92.59h-177.78l251.85-636.11h177.78l251.85,636.11h-177.78l-37.04-92.59Zm-49.07-124.07l-76.85-195.37-76.85,195.37h153.7Z"/>
  </g>
  <polyline class="cls-1" points="508.7 1081.32 508.7 695.32 1597.25 695.32 1597.25 2512.48 508.7 2512.48 508.7 1481.74"/>
</svg>