<?xml version="1.0" encoding="UTF-8"?>
<svg id="Layer_1" data-name="Layer 1" xmlns="http://www.w3.org/2000/svg" viewBox="0 0 3000 3000">
  <defs>
    <style>
      .cls-1 {
        fill: #fff;
      }

      .cls-2 {
        fill: none;
        stroke: #fff;
        stroke-miterlimit: 10;
        stroke-width: 186px;
      }
    </style>
  </defs>
  <g>
    <path class="cls-1" d="m430.14,1382.7h-193.52v-141.67h544.44v141.67h-192.59v494.44h-158.33v-494.44Z"/>
    <path class="cls-1" d="m1236.62,1784.55h-251.85l-37.04,92.59h-177.78l251.85-636.11h177.78l251.85,636.11h-177.78l-37.04-92.59Zm-49.07-124.07l-76.85-195.37-76.85,195.37h153.7Z"/>
    <path class="cls-1" d="m1893.09,1877.14l-139.81-199.07h-77.78v199.07h-158.33v-636.11h295.37c139.81,0,241.67,89.81,241.67,218.52,0,92.59-52.78,165.74-135.18,199.07l153.7,218.52h-179.63Zm-217.59-343.52h122.22c54.63,0,93.52-29.63,93.52-74.07s-38.89-74.07-93.52-74.07h-122.22v148.15Z"/>
    <path class="cls-1" d="m2568.07,1784.55h-251.85l-37.04,92.59h-177.78l251.85-636.11h177.78l251.85,636.11h-177.78l-37.04-92.59Zm-49.07-124.07l-76.85-195.37-76.85,195.37h153.7Z"/>
  </g>
  <polyline class="cls-2" points="508.7 977.42 508.7 591.42 1597.25 591.42 1597.25 2408.58 508.7 2408.58 508.7 1377.84"/>
</svg>